<?xml version="1.0" encoding="utf-8"?>
<!-- Generator: Adobe Illustrator 26.0.2, SVG Export Plug-In . SVG Version: 6.00 Build 0)  -->
<svg version="1.1" id="图层_1" xmlns="http://www.w3.org/2000/svg" xmlns:xlink="http://www.w3.org/1999/xlink" x="0px" y="0px"
	 viewBox="0 0 151 28" style="enable-background:new 0 0 151 28;" xml:space="preserve">
<style type="text/css">
	.st0{fill:none;}
	.st1{fill:#FF651C;}
	.st2{opacity:0.9;}
	.st3{font-family:'FZCHSJW--GB1-0';}
	.st4{font-size:27.1552px;}
</style>
<rect class="st0" width="151" height="28"/>
<g>
	<path class="st1" d="M14.1,19.6c0,0.2,0.1,0.3,0.3,0.3h6.5c0.1,0,0.3-0.1,0.3-0.3V18c0-0.2-0.1-0.3-0.3-0.3h-6.5
		c-0.1,0-0.3,0.1-0.3,0.3V19.6z M7.3,19.8l6.7-5.6c0.1-0.1,0.1-0.3,0-0.4L7.3,8.2c0,0-0.1-0.1-0.1-0.1c-0.1,0-0.1,0-0.2,0
		c0,0-0.1,0.1-0.1,0.1s0,0.1,0,0.2v2.2c0,0.1,0,0.2,0.1,0.2l3.8,3.2L7,17.2c0,0-0.1,0.1-0.1,0.1c0,0,0,0.1,0,0.1v2.2
		C6.9,19.9,7.1,20,7.3,19.8z M26.9,0H1.1C0.5,0,0,0.5,0,1.1v25.8C0,27.5,0.5,28,1.1,28h25.8c0.6,0,1.1-0.5,1.1-1.1V1.1
		C28,0.5,27.5,0,26.9,0z M25.5,25.5h-23v-23h23V25.5z"/>
</g>
<text transform="matrix(1.0013 0 0 1 38.5098 23.1719)" class="st2 st3 st4">画语</text>
</svg>
